<?xml version="1.0" encoding="UTF-8" standalone="no"?>
<!-- Created with Inkscape (http://www.inkscape.org/) -->
<svg
   xmlns:dc="http://purl.org/dc/elements/1.1/"
   xmlns:cc="http://web.resource.org/cc/"
   xmlns:rdf="http://www.w3.org/1999/02/22-rdf-syntax-ns#"
   xmlns:svg="http://www.w3.org/2000/svg"
   xmlns="http://www.w3.org/2000/svg"
   xmlns:sodipodi="http://sodipodi.sourceforge.net/DTD/sodipodi-0.dtd"
   xmlns:inkscape="http://www.inkscape.org/namespaces/inkscape"
   width="48"
   height="48"
   id="svg2"
   sodipodi:version="0.32"
   inkscape:version="0.45pre1"
   version="1.0"
   inkscape:export-filename="D:\.temp\123-16.png"
   inkscape:export-xdpi="30"
   inkscape:export-ydpi="30"
   sodipodi:docbase="D:\.temp"
   sodipodi:docname="рисунок.svg"
   inkscape:output_extension="org.inkscape.output.svg.inkscape"
   sodipodi:modified="TRUE">
  <defs
     id="defs4">
    <marker
       inkscape:stockid="Legs"
       orient="auto"
       refY="0"
       refX="0"
       id="Legs"
       style="overflow:visible">
      <g
         id="g7105"
         transform="scale(-0.7,-0.7)">
        <g
           id="g7107"
           transform="matrix(0,-1,-1,0,20.70862,21.31391)">
          <path
             id="path7109"
             d="M 21.22125,20.67536 C 14.311099,25.396517 18.766725,27.282204 15.380179,34.118595"
             style="fill:none;fill-opacity:0.75;fill-rule:evenodd;stroke:#000000;stroke-width:1pt;marker-start:none;marker-end:none" />
          <path
             id="path7111"
             d="M 21.39811,20.54812 C 20.037601,28.895644 24.934182,29.31806 25.903151,34.373078"
             style="fill:none;fill-opacity:0.75;fill-rule:evenodd;stroke:#000000;stroke-width:1pt;marker-start:none;marker-end:none" />
        </g>
        <path
           id="path7113"
           d="M -14.09007,-6.7318716 L -15.012238,-2.6884886 L -11.049487,-3.9115586 L -14.09007,-6.7318716 z "
           style="fill:#030300;fill-rule:evenodd;stroke-width:1pt;marker-end:none" />
        <path
           id="path7115"
           d="M -15.215679,4.5567534 L -13.341552,8.2563664 L -11.074678,4.7835114 L -15.215679,4.5567534 z "
           style="fill:#030300;fill-rule:evenodd;stroke-width:1pt;marker-end:none" />
      </g>
    </marker>
    <marker
       inkscape:stockid="Club"
       orient="auto"
       refY="0"
       refX="0"
       id="Club"
       style="overflow:visible">
      <path
         id="path7085"
         d="M -1.5971367,-7.0977635 C -3.4863874,-7.0977635 -5.0235187,-5.5606321 -5.0235187,-3.6713813 C -5.0235187,-3.0147015 -4.7851656,-2.4444556 -4.4641095,-1.9232271 C -4.5028609,-1.8911157 -4.5437814,-1.8647646 -4.5806531,-1.8299921 C -5.2030765,-2.6849849 -6.1700514,-3.275133 -7.307773,-3.275133 C -9.1970245,-3.2751331 -10.734155,-1.7380016 -10.734155,0.15124914 C -10.734155,2.0404999 -9.1970245,3.5776313 -7.307773,3.5776313 C -6.3143268,3.5776313 -5.439154,3.1355702 -4.8137404,2.4588126 C -4.9384274,2.8137041 -5.0235187,3.1803 -5.0235187,3.5776313 C -5.0235187,5.4668819 -3.4863874,7.0040135 -1.5971367,7.0040135 C 0.29211394,7.0040135 1.8292454,5.4668819 1.8292454,3.5776313 C 1.8292454,2.7842354 1.5136868,2.0838028 1.0600576,1.503155 C 2.4152718,1.7663868 3.7718375,2.2973711 4.7661444,3.8340272 C 4.0279463,3.0958289 3.5540908,1.7534117 3.5540908,-0.058529361 L 2.9247554,-0.10514681 L 3.5074733,-0.12845553 C 3.5074733,-1.9403966 3.9580199,-3.2828138 4.6962183,-4.0210121 C 3.7371277,-2.5387813 2.4390549,-1.9946496 1.1299838,-1.7134486 C 1.5341802,-2.2753578 1.8292454,-2.9268556 1.8292454,-3.6713813 C 1.8292454,-5.5606319 0.29211394,-7.0977635 -1.5971367,-7.0977635 z "
         style="fill-rule:evenodd;stroke:#000000;stroke-width:0.74587913pt;marker-start:none"
         transform="scale(0.6,0.6)" />
    </marker>
  </defs>
  <sodipodi:namedview
     id="base"
     pagecolor="#ffffff"
     bordercolor="#666666"
     borderopacity="1.0"
     gridtolerance="10000"
     guidetolerance="10"
     objecttolerance="10"
     inkscape:pageopacity="0.0"
     inkscape:pageshadow="2"
     inkscape:zoom="11.2"
     inkscape:cx="27.686626"
     inkscape:cy="22.315258"
     inkscape:document-units="px"
     inkscape:current-layer="layer1"
     width="48px"
     height="48px"
     showgrid="true"
     inkscape:window-width="1280"
     inkscape:window-height="975"
     inkscape:window-x="-4"
     inkscape:window-y="-4"
     borderlayer="false" />
  <metadata
     id="metadata7">
    <rdf:RDF>
      <cc:Work
         rdf:about="">
        <dc:format>image/svg+xml</dc:format>
        <dc:type
           rdf:resource="http://purl.org/dc/dcmitype/StillImage" />
      </cc:Work>
    </rdf:RDF>
  </metadata>
  <g
     inkscape:label="Layer 1"
     inkscape:groupmode="layer"
     id="layer1"
     style="display:inline"
     transform="translate(-9.9886375,-10)">
    <path
       style="fill:#cccccc;stroke:#000000;stroke-width:0.96860605;stroke-miterlimit:4;stroke-opacity:1"
       d="M 12.647878,19.415033 L 55.416598,19.834345 L 55.503918,48.364348 C 55.503918,48.364348 55.880268,55.453199 34.012022,55.457902 C 12.136706,55.462603 12.47324,48.532072 12.47324,48.532072 L 12.647878,19.415033 z "
       id="rect3136"
       sodipodi:nodetypes="cccscc" />
    <path
       sodipodi:type="arc"
       style="fill:#cccccc;stroke:#000000;stroke-width:1;stroke-miterlimit:4;stroke-dasharray:none;stroke-opacity:1;display:inline"
       id="path9215"
       sodipodi:cx="31.473215"
       sodipodi:cy="21.901785"
       sodipodi:rx="19.955357"
       sodipodi:ry="7.6339288"
       d="M 51.428572 21.901785 A 19.955357 7.6339288 0 1 1  11.517859,21.901785 A 19.955357 7.6339288 0 1 1  51.428572 21.901785 z"
       transform="matrix(1.0713652,0,0,0.9076991,0.199303,28.258895)" />
    <path
       sodipodi:type="arc"
       style="fill:#cccccc;stroke:#000000;stroke-width:1;stroke-miterlimit:4;stroke-dasharray:none;stroke-opacity:1;display:inline"
       id="path9211"
       sodipodi:cx="31.473215"
       sodipodi:cy="21.901785"
       sodipodi:rx="19.955357"
       sodipodi:ry="7.6339288"
       d="M 51.428572 21.901785 A 19.955357 7.6339288 0 1 1  11.517859,21.901785 A 19.955357 7.6339288 0 1 1  51.428572 21.901785 z"
       transform="matrix(1.0713652,0,0,0.9076991,0.2864916,19.580232)" />
    <path
       sodipodi:type="arc"
       style="fill:#cccccc;stroke:#000000;stroke-width:1;stroke-miterlimit:4;stroke-dasharray:none;stroke-opacity:1;display:inline"
       id="path9207"
       sodipodi:cx="31.473215"
       sodipodi:cy="21.901785"
       sodipodi:rx="19.955357"
       sodipodi:ry="7.6339288"
       d="M 51.428572 21.901785 A 19.955357 7.6339288 0 1 1  11.517859,21.901785 A 19.955357 7.6339288 0 1 1  51.428572 21.901785 z"
       transform="matrix(1.0713652,0,0,0.9076991,0.2864916,9.4817926)" />
    <path
       sodipodi:type="arc"
       style="fill:#cccccc;stroke:#000000;stroke-width:1;stroke-miterlimit:4;stroke-dasharray:none;stroke-opacity:1"
       id="path3134"
       sodipodi:cx="31.473215"
       sodipodi:cy="21.901785"
       sodipodi:rx="19.955357"
       sodipodi:ry="7.6339288"
       d="M 51.428572 21.901785 A 19.955357 7.6339288 0 1 1  11.517859,21.901785 A 19.955357 7.6339288 0 1 1  51.428572 21.901785 z"
       transform="matrix(1.0713652,0,0,0.9076991,0.3074985,-0.4578489)" />
    <path
       style="fill:#00ff00;fill-opacity:0;fill-rule:evenodd;stroke:#008000;stroke-width:5.11015797;stroke-linecap:round;stroke-linejoin:miter;marker-mid:none;stroke-miterlimit:4;stroke-dasharray:none;stroke-opacity:1"
       d="M 19.430437,30.909607 L 31.117971,47.04543 L 48.38469,22.495559"
       id="path3142"
       sodipodi:nodetypes="ccc" />
  </g>
</svg>
